<?xml version="1.0" encoding="UTF-8"?>
<svg id="Layer_1" xmlns="http://www.w3.org/2000/svg" version="1.1" viewBox="0 0 241 241">
  <!-- Generator: Adobe Illustrator 29.1.0, SVG Export Plug-In . SVG Version: 2.1.0 Build 142)  -->
  <defs>
    <style>
      .st0 {
        fill: #f3ae70;
      }
    </style>
  </defs>
  <path class="st0" d="M158,214.9c-4.1-.5-12.4-1.8-18.5-2.7l-11-1.8,9-2.2c21.6-5.1,41.1-6.7,48.1-3.7,3,1.2,3.5,1.9,3.2,4.1-.5,4.8-4.6,6.8-14.5,7-4.9.1-12.2-.2-16.3-.7h0Z"/>
  <path class="st0" d="M41.5,193.5c8.7-16.2,34.5-58.6,48-79C133.4,48.4,167.7,14.2,187,17.5c5.5.9,11.3,5.5,14,11,10.5,21.7-20,60.6-94,119.6-8,6.3-26.4,20.7-41,31.8-14.6,11.2-27.2,20.9-27.9,21.5-.8.6.7-2.9,3.4-7.9h0Z"/>
  <path class="st0" d="M108.6,183.9c32.2-20.5,75.6-41.7,95.9-46.9,17.9-4.6,29.1-.2,27,10.7-2,10.6-19.1,19.7-50.5,26.7-17.3,3.8-70.1,12.6-75.9,12.6s.7-1.4,3.5-3.1Z"/>
  <path class="st0" d="M19.2,155.5c-4.3-15.6-7.6-37.7-6.9-45.8.6-6.8,2.8-9.9,6.6-9.5,6.5.7,7.8,15.3,4.1,42.6-2.5,17.8-2.5,17.7-3.8,12.7h0Z"/>
  <path class="st0" d="M41.8,129.2c1-10.6,4.6-35.2,6.9-46.2,6.9-34.3,16.1-49.4,26-42.5,7.2,5.1,4.5,20.6-8.2,46.9-5.2,10.7-22.9,43.3-24.4,44.8-.4.5-.5-.9-.3-3Z"/>
</svg>